<?xml version="1.0" standalone="no"?>
<!DOCTYPE svg PUBLIC "-//W3C//DTD SVG 20010904//EN"
 "http://www.w3.org/TR/2001/REC-SVG-20010904/DTD/svg10.dtd">
<svg version="1.0" xmlns="http://www.w3.org/2000/svg"
 width="980.000000pt" height="356.000000pt" viewBox="0 0 980.000000 356.000000"
 preserveAspectRatio="xMidYMid meet">

<g transform="translate(0.000000,356.000000) scale(0.100000,-0.100000)"
fill="#000000" stroke="none">
<path d="M1714 3109 c66 -16 66 -14 66 -193 0 -88 -4 -167 -9 -175 -5 -8 -29
-18 -53 -21 -24 -4 51 -8 167 -8 116 0 201 2 190 5 -71 15 -65 4 -65 108 l0
95 105 0 105 0 0 -89 c0 -96 -5 -106 -55 -114 -16 -2 65 -4 180 -4 116 0 192
2 170 6 -67 11 -65 6 -65 190 0 186 -1 184 66 200 28 6 -21 9 -171 9 -179 0
-204 -1 -170 -12 l40 -12 3 -82 3 -82 -106 0 -106 0 3 82 3 82 40 12 c34 11 9
12 -170 12 -150 0 -199 -3 -171 -9z"/>
<path d="M4045 3106 l40 -12 3 -173 c3 -181 0 -196 -41 -204 -12 -2 46 -4 128
-5 83 0 139 3 125 7 -24 7 -25 10 -28 105 -2 82 0 102 15 118 16 17 16 18 0
12 -15 -5 -17 3 -17 80 l0 86 -132 -1 c-120 0 -129 -2 -93 -13z"/>
<path d="M4936 3110 c29 -4 57 -11 63 -14 17 -11 15 -350 -2 -364 -7 -6 -33
-12 -57 -15 -25 -2 59 -4 185 -4 127 0 210 3 185 6 -67 10 -70 13 -70 95 l0
73 138 5 c157 6 214 23 237 69 20 38 19 62 -5 91 -44 57 -76 62 -415 64 -183
2 -289 -1 -259 -6z m402 -11 c39 -13 56 -55 49 -116 -6 -60 -29 -79 -96 -82
l-51 -1 0 105 0 105 34 0 c18 0 47 -5 64 -11z"/>
<path d="M7095 3106 l40 -12 3 -181 2 -182 -32 -10 c-24 -7 6 -9 117 -9 112 0
143 2 123 10 -28 10 -28 10 -28 108 0 91 2 100 22 114 32 23 85 21 98 -4 6
-11 10 -60 8 -112 -3 -87 -4 -93 -28 -105 -21 -11 -1 -12 130 -11 85 0 143 3
128 5 -14 2 -31 10 -37 17 -6 6 -12 55 -13 107 l-3 94 -45 23 c-53 27 -161 30
-217 7 -19 -8 -37 -15 -39 -15 -2 0 -4 38 -4 85 l0 85 -132 -1 c-120 0 -129
-2 -93 -13z"/>
<path d="M3295 3046 c-33 -23 -80 -48 -105 -55 -59 -19 -72 -31 -32 -31 l31 0
3 -101 c3 -99 4 -103 31 -123 25 -18 42 -21 142 -21 110 0 115 1 141 26 14 15
24 33 21 40 -3 9 -9 4 -16 -14 -18 -46 -78 -60 -111 -27 -17 17 -20 33 -20
120 l0 100 54 0 c30 0 58 5 61 10 4 6 -17 10 -54 10 l-61 0 0 55 c0 38 -4 55
-12 54 -7 -1 -40 -20 -73 -43z"/>
<path d="M6342 3044 c-35 -24 -82 -49 -105 -55 -56 -16 -69 -29 -29 -29 l31 0
3 -101 c3 -98 4 -103 30 -122 21 -16 48 -22 112 -25 47 -2 100 -2 119 2 39 7
77 39 76 64 0 14 -2 13 -9 -3 -19 -50 -86 -69 -119 -36 -19 19 -21 33 -21 121
l0 100 54 0 c30 0 58 5 61 10 4 6 -17 10 -54 10 l-61 0 0 55 c0 38 -4 55 -12
54 -7 -1 -41 -21 -76 -45z"/>
<path d="M2705 2963 c-59 -18 -75 -29 -75 -54 0 -26 30 -39 89 -39 87 0 134
42 80 71 -29 15 -10 31 32 27 34 -3 34 -4 34 -53 0 -57 -9 -62 -113 -64 -108
-2 -170 -44 -142 -97 7 -13 26 -28 43 -34 45 -15 167 -12 201 5 26 14 33 14
62 0 37 -18 137 -20 183 -4 30 11 51 35 51 58 0 20 -19 11 -22 -10 -4 -31 -32
-46 -52 -30 -12 10 -16 33 -16 97 0 98 -12 116 -92 133 -70 15 -204 12 -263
-6z m175 -156 c0 -60 -12 -77 -52 -77 -54 0 -51 91 5 115 46 20 47 20 47 -38z"/>
<path d="M3656 2964 c-92 -29 -134 -76 -122 -140 15 -75 121 -118 277 -112 77
3 105 8 144 28 27 14 51 32 53 40 3 8 -9 3 -26 -12 -18 -15 -56 -32 -86 -39
-48 -10 -61 -10 -100 5 -58 22 -81 67 -72 139 7 65 36 97 86 97 47 0 52 -6 35
-39 -18 -36 -4 -58 45 -71 72 -19 139 6 126 47 -20 61 -235 95 -360 57z"/>
<path d="M4325 2970 c-16 -6 -12 -9 20 -11 l40 -4 3 -113 c3 -109 2 -113 -20
-122 -15 -6 27 -8 127 -8 83 1 138 3 123 5 -33 5 -37 17 -40 133 l-3 85 -45
23 c-34 17 -61 22 -115 21 -38 0 -79 -4 -90 -9z"/>
<path d="M5752 2963 c-58 -17 -87 -52 -64 -75 17 -17 117 -22 152 -8 35 15 40
44 9 61 -29 15 -10 31 32 27 34 -3 34 -4 34 -53 0 -57 -9 -62 -113 -64 -76 -1
-128 -21 -144 -56 -10 -23 -9 -29 15 -53 25 -24 36 -27 111 -30 63 -3 93 0
118 12 31 15 37 15 64 1 34 -18 137 -20 183 -4 31 11 51 35 51 61 0 7 -9 -2
-20 -19 -11 -18 -26 -33 -33 -33 -28 0 -37 25 -37 107 0 99 -11 115 -89 132
-73 15 -206 12 -269 -6z m178 -156 c0 -60 -12 -77 -52 -77 -54 0 -51 91 5 115
46 20 47 20 47 -38z"/>
<path d="M6703 2963 c-165 -49 -159 -194 10 -239 54 -14 194 -17 237 -5 17 5
4 7 -37 7 -48 -1 -68 4 -90 20 -56 42 -68 140 -22 198 16 20 29 26 59 26 46 0
57 -12 36 -42 -21 -30 -5 -55 44 -68 72 -19 139 6 126 47 -20 62 -232 95 -363
56z"/>
<path d="M7044 2779 c-3 -6 -20 -19 -38 -30 -17 -10 -27 -19 -22 -19 14 0 76
41 76 51 0 12 -7 11 -16 -2z"/>
<path d="M2242 2556 c-22 -20 -43 -48 -46 -61 -5 -19 -13 -25 -35 -25 -84 0
-125 -51 -76 -96 17 -15 34 -22 48 -20 63 13 116 16 122 7 3 -6 1 -20 -5 -31
-9 -17 -8 -20 7 -20 16 -1 16 -2 -2 -17 -27 -21 -185 -96 -191 -90 -10 9 72
68 121 87 28 10 42 19 33 19 -59 2 -177 -89 -217 -167 -27 -53 -27 -88 2 -115
13 -12 49 -46 81 -76 31 -29 56 -54 54 -55 -2 -1 -22 -7 -45 -12 -38 -10 -44
-9 -66 14 l-24 24 -39 -39 c-45 -46 -150 -165 -182 -207 -31 -41 -28 -67 25
-174 l46 -95 109 6 c69 4 108 3 108 -3 0 -19 -44 -28 -182 -38 -134 -10 -138
-11 -203 -50 -37 -22 -63 -42 -58 -45 5 -3 43 -15 84 -26 l74 -20 100 24 c138
32 191 39 199 26 9 -14 -10 -83 -40 -145 -13 -27 -22 -57 -19 -66 7 -21 47
-40 85 -40 25 0 30 -4 30 -25 0 -18 -4 -23 -15 -19 -9 4 -15 0 -15 -10 0 -13
-12 -16 -63 -16 -36 0 -68 5 -75 12 -19 19 -14 57 13 83 13 14 20 25 15 25
-13 0 -41 -31 -51 -57 -18 -47 21 -78 96 -76 95 2 135 9 182 29 50 22 54 23
85 7 71 -35 85 -41 136 -53 61 -14 127 -7 160 18 39 30 28 112 -14 112 -8 0
-14 6 -14 14 0 8 -7 16 -15 20 -8 3 -15 12 -15 21 0 8 -3 15 -8 15 -18 0 -34
64 -29 120 3 33 1 62 -5 68 -11 11 47 43 85 47 12 1 25 3 30 4 11 2 8 46 -5
59 -7 7 -21 12 -32 12 -18 0 -18 1 4 25 13 14 20 25 16 25 -5 0 -3 7 4 15 7 8
16 13 20 10 12 -7 50 44 50 66 0 11 -9 19 -22 21 -28 4 -49 69 -49 146 0 37
-4 55 -14 58 -8 3 -17 14 -20 23 -6 21 -46 41 -80 41 -13 0 -27 5 -30 10 -8
12 -16 12 -34 1 -7 -5 -10 -14 -6 -20 5 -9 11 -9 23 1 13 11 14 11 8 -1 -10
-16 -129 -71 -153 -71 -24 1 -93 39 -71 40 9 0 20 -5 23 -10 4 -6 15 -8 26 -5
11 4 19 2 19 -5 0 -6 6 -10 13 -7 6 2 11 10 9 16 -1 8 7 9 25 5 21 -6 25 -4
21 8 -4 9 4 21 20 31 15 8 66 53 115 99 96 93 102 109 68 176 -43 83 -131 153
-233 186 -24 7 -23 43 2 51 10 3 33 -1 50 -10 39 -20 84 -12 105 18 37 52 1
92 -75 85 -54 -5 -68 9 -27 27 16 8 21 18 20 39 -3 41 -14 49 -76 54 -51 4
-57 2 -95 -32z m115 2 c7 -6 19 -8 26 -5 14 5 17 -19 4 -40 -9 -14 -49 -13
-59 2 -5 6 -8 4 -8 -6 0 -9 3 -19 7 -23 14 -14 12 -44 -4 -50 -21 -8 -29 0
-15 17 6 7 10 26 9 43 -2 26 1 29 28 27 l30 -2 -24 18 c-22 17 -25 17 -43 2
-10 -9 -24 -16 -30 -16 -8 0 -11 -16 -9 -47 l3 -48 -31 18 c-28 15 -42 42 -23
42 4 0 12 10 17 23 6 12 20 26 33 32 12 5 22 13 22 16 0 10 54 8 67 -3z m68
-284 c42 -24 106 -84 90 -84 -20 0 -172 80 -190 101 l-20 22 40 -7 c22 -4 58
-18 80 -32z m-109 5 c14 -15 15 -20 4 -17 -11 2 -14 -5 -12 -27 3 -44 -6 -75
-23 -75 -10 0 -15 9 -14 28 4 67 0 84 -18 78 -11 -4 -8 2 7 14 31 25 33 25 56
-1z m-98 -38 c-7 -11 -16 -17 -21 -14 -4 3 0 11 10 19 24 18 25 17 11 -5z m40
-33 c-3 -47 -21 -55 -26 -12 -4 31 4 54 18 54 7 0 10 -17 8 -42z m92 -9 c0
-28 -4 -39 -12 -37 -17 6 -17 78 0 78 7 0 12 -15 12 -41z m-182 20 c-22 -12
-26 -99 -5 -99 6 -1 1 -7 -13 -15 -27 -15 -54 -21 -31 -6 8 5 16 33 19 62 5
51 14 69 37 69 6 -1 2 -5 -7 -11z m22 -38 c0 -17 -4 -33 -10 -36 -6 -4 -10 8
-10 29 0 20 5 36 10 36 6 0 10 -13 10 -29z m220 -17 c0 -32 -12 -45 -24 -25
-9 13 5 71 15 65 5 -3 9 -21 9 -40z m32 6 c-6 -41 -12 -38 -12 6 0 19 4 33 8
30 5 -3 7 -19 4 -36z m-226 -38 c-12 -11 -16 6 -9 39 l8 34 3 -33 c2 -19 1
-36 -2 -40z m-139 13 c-5 -36 -3 -46 11 -54 14 -9 13 -10 -10 -11 -30 0 -32 7
-22 73 9 54 28 47 21 -8z m39 -21 c-3 -8 -10 -14 -16 -14 -13 0 -10 51 4 69 9
11 12 9 14 -13 2 -15 1 -34 -2 -42z m-78 19 c-6 -21 -7 -57 -4 -80 6 -49 -5
-56 -30 -18 -17 27 -10 64 21 112 22 32 25 29 13 -14z m329 15 c-3 -8 -6 -5
-6 6 -1 11 2 17 5 13 3 -3 4 -12 1 -19z m113 -18 c0 -28 -15 -48 -27 -36 -3 3
-2 21 1 41 8 41 26 38 26 -5z m40 -21 c0 -40 -3 -49 -18 -49 -16 0 -17 5 -8
54 12 66 26 63 26 -5z m45 -3 c15 -38 15 -48 3 -72 -24 -50 -34 -38 -33 45 0
43 3 77 7 75 3 -2 14 -24 23 -48z m-89 -56 c7 0 16 -5 20 -12 5 -8 2 -9 -10
-5 -9 4 -15 3 -12 -2 5 -8 -91 -88 -134 -111 -50 -27 -137 8 -235 96 -22 20
-35 33 -28 30 6 -3 13 -3 15 2 1 4 46 26 98 48 l95 41 89 -43 c49 -24 95 -44
102 -44z m-111 70 c3 -6 -1 -7 -9 -4 -18 7 -21 14 -7 14 6 0 13 -4 16 -10z
m70 -31 c5 -5 -5 -4 -23 2 -17 6 -32 13 -32 16 0 7 43 -8 55 -18z m-314 -106
c69 -59 150 -97 191 -89 16 3 66 33 110 66 76 56 98 65 98 37 -1 -18 -111
-113 -166 -142 -60 -32 -97 -28 -163 18 -85 58 -169 157 -133 157 5 0 33 -21
63 -47z m-131 -123 c0 -5 -5 -10 -11 -10 -5 0 -7 5 -4 10 3 6 8 10 11 10 2 0
4 -4 4 -10z m54 -19 c-2 -3 -12 3 -22 13 -16 17 -16 18 5 5 12 -7 20 -15 17
-18z m116 19 c0 -5 9 -10 19 -10 10 0 22 -7 25 -16 3 -8 2 -13 -2 -12 -44 22
-62 33 -62 40 0 4 5 8 10 8 6 0 10 -4 10 -10z m-33 -15 c9 -25 -2 -27 -28 -6
l-24 20 23 1 c12 0 25 -7 29 -15z m387 -4 c3 -4 -1 -17 -10 -27 -14 -18 -15
-18 -9 4 7 25 -7 29 -25 7 -7 -9 -15 -13 -18 -10 -7 7 29 34 45 35 6 0 14 -4
17 -9z m-490 -16 c7 -19 196 -110 261 -126 28 -6 52 -13 54 -15 2 -2 -38 -48
-88 -103 -100 -109 -113 -115 -226 -126 -38 -3 -82 -8 -97 -11 -23 -3 -30 1
-44 28 -9 18 -23 40 -30 49 -8 8 -17 36 -20 61 -6 45 -5 49 47 112 30 36 56
61 57 56 2 -6 8 -10 14 -10 6 0 6 6 -2 15 -10 12 -7 21 16 49 32 38 49 44 58
21z m-80 -29 c-16 -18 -41 -50 -57 -69 -18 -24 -33 -34 -43 -30 -10 4 -15 1
-14 -8 4 -28 0 -41 -13 -36 -10 4 -13 -9 -13 -49 1 -33 6 -56 14 -59 14 -5 16
-25 2 -25 -5 0 -17 14 -26 31 -13 26 -14 33 -2 40 11 8 11 11 -1 18 -12 8 -12
15 -4 33 15 31 103 133 103 118 0 -6 5 -8 11 -5 6 4 8 13 5 21 -4 9 4 18 21
25 22 8 24 12 13 19 -12 8 -10 10 9 10 l23 0 -28 -34z m166 4 c0 -13 -12 -12
-32 4 -10 7 -15 16 -12 19 9 8 44 -11 44 -23z m140 -15 l51 -26 61 25 c34 14
63 24 65 22 4 -4 -18 -69 -26 -78 -18 -21 -251 61 -251 88 0 16 20 9 100 -31z
m310 21 c0 -7 -23 -27 -51 -45 l-52 -32 29 34 c18 21 36 32 47 29 11 -3 17 1
17 12 0 9 2 16 5 16 3 0 5 -6 5 -14z m-380 -38 c0 -10 -3 -10 -35 2 -14 5 -24
14 -21 19 7 10 56 -9 56 -21z m293 7 c-11 -19 -36 -45 -44 -45 -4 0 -4 13 2
28 6 17 17 28 28 28 11 0 17 -5 14 -11z m121 7 c3 -5 3 -18 0 -29 -5 -17 -17
-23 -56 -28 -27 -4 -51 -5 -54 -2 -3 3 11 15 31 27 20 12 39 19 43 16 3 -4 0
-11 -8 -16 -13 -8 -12 -10 3 -10 12 0 17 8 17 25 0 24 13 34 24 17z m-334 -53
c0 -4 -13 -2 -29 4 -17 6 -28 14 -25 19 5 8 54 -12 54 -23z m50 -9 c13 -8 13
-10 -2 -10 -9 0 -20 5 -23 10 -8 13 5 13 25 0z m284 -16 c12 -32 5 -43 -41
-57 -92 -29 -99 -29 -111 -1 -24 50 -15 55 134 73 7 0 15 -6 18 -15z m-200 -9
c4 -11 -3 -19 -22 -27 -15 -6 -22 -12 -14 -15 6 -3 10 -9 7 -13 -3 -5 -12 -7
-19 -4 -8 3 -17 1 -21 -5 -3 -6 -1 -11 6 -11 9 0 9 -3 -1 -14 -6 -8 -18 -12
-26 -9 -10 4 -3 16 26 46 45 47 47 54 23 60 -12 3 -9 5 8 6 16 1 29 -5 33 -14z
m52 -111 c-6 -15 -36 -20 -36 -6 0 4 5 13 12 20 9 9 9 12 0 12 -7 0 -12 -4
-12 -10 0 -14 -27 -12 -33 3 -3 6 -8 -3 -12 -20 -5 -21 -13 -33 -24 -32 -10 0
-11 2 -3 6 6 2 12 9 12 14 0 4 -7 6 -16 2 -8 -3 -13 -12 -10 -19 4 -9 -2 -14
-17 -14 -18 0 -10 11 43 65 l65 65 18 -36 c10 -20 16 -42 13 -50z m167 28 c3
-17 1 -22 -11 -17 -8 3 -21 0 -28 -6 -15 -12 -17 -6 -8 26 7 29 41 27 47 -3z
m-72 -25 c-13 -13 -15 1 -4 30 7 17 8 17 11 -1 2 -10 -1 -23 -7 -29z m-37 1
c-3 -5 -12 -4 -20 3 -19 16 -18 18 6 12 11 -3 17 -9 14 -15z m-215 -24 c-6 -7
-15 -11 -21 -8 -5 3 -4 12 3 20 6 7 15 11 21 8 5 -3 4 -12 -3 -20z m186 17 c3
-5 1 -12 -5 -16 -5 -3 -10 1 -10 9 0 18 6 21 15 7z m185 -16 c0 -8 -5 -15 -11
-15 -5 0 -7 5 -3 12 5 8 2 9 -9 5 -10 -3 -17 -2 -17 3 0 6 9 10 20 10 11 0 20
-7 20 -15z m-263 -1 c-3 -3 -12 -4 -19 -1 -8 3 -5 6 6 6 11 1 17 -2 13 -5z
m196 -1 c-23 -9 -14 -21 20 -29 17 -4 28 -9 22 -10 -15 -6 -126 31 -119 39 4
4 26 7 48 6 23 0 35 -3 29 -6z m-338 -23 c3 -6 -6 -15 -22 -21 -18 -7 -23 -13
-15 -18 19 -11 -27 -49 -68 -57 -28 -5 -33 -4 -23 6 6 7 23 13 38 13 15 0 24
4 22 11 -3 6 9 26 26 44 35 36 34 36 42 22z m198 3 c-8 -3 -11 -14 -7 -29 4
-15 -2 -36 -16 -59 -25 -40 -26 -41 -47 -19 -21 21 -66 14 -78 -13 -17 -39
-101 -36 -88 4 3 7 -3 9 -15 6 -14 -3 -6 10 25 44 25 26 52 49 62 50 127 19
184 24 164 16z m113 -18 c48 -20 36 -36 -18 -23 -71 16 -76 19 -53 28 28 12
31 12 71 -5z m-690 -92 c-9 -21 -28 -5 -21 18 4 13 2 19 -8 19 -19 0 -30 27
-14 33 16 5 50 -51 43 -70z m712 42 c4 -5 -1 -5 -10 -2 -10 4 -18 3 -18 -2 0
-12 -79 11 -84 25 -3 9 8 9 50 -1 30 -7 58 -16 62 -20z m-53 -27 c7 -8 2 -9
-15 -4 -14 3 -31 6 -37 6 -7 0 -13 5 -13 11 0 13 50 3 65 -13z m-435 -7 c0 -5
-13 -11 -30 -13 -16 -3 -30 -1 -30 3 0 7 10 10 53 18 4 0 7 -3 7 -8z m-80 -11
c0 -5 -15 -10 -32 -9 -31 1 -32 1 -8 9 35 11 40 11 40 0z m490 -12 c0 -6 -7
-7 -16 -4 -9 3 -20 6 -25 6 -5 0 -9 4 -9 9 0 4 11 6 25 3 14 -2 25 -9 25 -14z
m-572 7 c-10 -11 -48 -14 -48 -4 0 5 12 9 27 9 14 0 24 -2 21 -5z m225 -6 c-6
-6 -9 -18 -6 -25 8 -21 -15 -17 -27 5 -8 16 -6 20 8 24 31 8 36 7 25 -4z m367
-55 c0 -21 -15 -29 -69 -40 -25 -5 -48 14 -54 43 -9 45 6 52 68 35 46 -13 55
-19 55 -38z m-443 24 c-3 -8 -6 -5 -6 6 -1 11 2 17 5 13 3 -3 4 -12 1 -19z
m277 -20 c5 -9 8 -19 6 -22 -3 -2 -88 -18 -190 -35 -102 -16 -231 -41 -287
-54 l-103 -25 -67 19 c-38 10 -72 19 -78 19 -5 0 17 16 50 36 59 36 61 36 240
50 99 8 216 19 260 23 112 12 156 9 169 -11z m-100 -67 c-41 -10 -54 -19 -54
-37 0 -13 -8 -14 -42 -9 -53 9 -69 22 -37 30 51 12 115 23 139 23 21 0 20 -1
-6 -7z m218 1 c-7 -5 -10 -16 -7 -24 8 -20 -42 -30 -108 -22 -50 7 -48 23 3
24 14 1 41 7 60 14 41 16 72 20 52 8z m-367 -62 c3 -5 1 -10 -4 -10 -6 0 -11
5 -11 10 0 6 2 10 4 10 3 0 8 -4 11 -10z m225 -16 c0 -2 -7 -4 -15 -4 -8 0
-15 4 -15 10 0 5 7 7 15 4 8 -4 15 -8 15 -10z m53 9 c-7 -2 -21 -2 -30 0 -10
3 -4 5 12 5 17 0 24 -2 18 -5z m50 0 c-7 -2 -19 -2 -25 0 -7 3 -2 5 12 5 14 0
19 -2 13 -5z m-179 -15 c-2 -3 1 -8 8 -10 9 -3 8 -9 -5 -22 -29 -29 -177 -6
-177 28 0 8 30 11 106 11 40 0 70 -3 68 -7z m222 -2 c16 -16 19 -41 5 -31 -5
3 -12 1 -16 -5 -9 -15 -132 -13 -138 3 -4 9 -8 8 -16 -3 -9 -13 -11 -13 -11 1
0 21 43 43 72 36 13 -4 37 -2 53 2 17 5 31 10 33 10 2 1 10 -5 18 -13z m-350
-61 c-22 -17 -66 -20 -66 -6 0 5 12 12 28 14 54 8 58 7 38 -8z m114 -3 c-8 -3
-18 -9 -21 -15 -10 -14 -79 1 -73 16 3 8 22 11 57 8 28 -2 45 -6 37 -9z m240
-1 c0 -5 -12 -11 -27 -13 -45 -5 -113 3 -107 13 7 12 134 12 134 0z m-277 -31
c79 0 102 -13 45 -26 -38 -8 -130 -7 -170 2 -16 3 -28 12 -28 21 0 12 8 14 38
9 20 -3 72 -6 115 -6z m277 -10 c-13 -9 -13 -11 0 -20 11 -7 -6 -9 -55 -9 -80
1 -117 9 -123 27 -3 9 22 12 95 12 68 0 93 -3 83 -10z m-386 -36 c20 -3 36 -8
36 -9 0 -2 -2 -10 -5 -17 -6 -16 -61 -13 -82 4 -18 14 -16 41 1 35 8 -3 31 -9
50 -13z m190 -8 c-5 -14 -47 -26 -90 -26 -16 0 -22 4 -18 14 5 13 20 17 96 24
11 1 15 -3 12 -12z m263 -3 c5 -13 -49 -33 -88 -33 -43 0 -26 25 24 37 48 12
59 11 64 -4z m-171 -4 c3 -6 2 -15 -3 -20 -11 -11 -65 3 -71 19 -5 15 64 16
74 1z m229 -40 c4 -5 -3 -18 -14 -28 -26 -22 -26 -28 -3 -34 12 -3 7 -8 -20
-20 -44 -20 -82 -21 -127 -6 -28 10 -32 15 -29 42 3 28 7 31 58 42 30 6 64 16
75 22 20 12 47 4 60 -18z m-407 -16 c2 -7 -4 -13 -13 -13 -11 0 -15 -5 -12
-14 3 -8 -1 -17 -10 -20 -21 -8 -22 -7 -16 32 4 26 10 32 26 30 11 -2 22 -9
25 -15z m51 8 c11 -7 10 -11 -7 -20 -16 -9 -21 -7 -25 9 -5 21 8 26 32 11z
m93 -16 c-5 -30 -13 -31 -43 -6 l-24 20 23 -6 c13 -3 22 -1 22 6 0 6 6 11 14
11 9 0 12 -8 8 -25z m58 5 c0 -10 -41 -31 -48 -25 -1 1 0 10 4 19 7 17 44 23
44 6z m-5 -50 c3 -5 2 -10 -4 -10 -5 0 -13 5 -16 10 -3 6 -2 10 4 10 5 0 13
-4 16 -10z"/>
<path d="M2232 2479 c2 -7 10 -15 17 -17 8 -3 12 1 9 9 -2 7 -10 15 -17 17 -8
3 -12 -1 -9 -9z"/>
<path d="M2215 2099 c-13 -19 4 -59 25 -59 12 0 22 9 26 24 7 31 -1 46 -26 46
-10 0 -22 -5 -25 -11z"/>
<path d="M2299 2094 c-9 -11 -10 -20 -2 -32 16 -26 44 -27 50 -3 3 12 10 21
16 21 14 0 -25 29 -39 30 -6 0 -17 -7 -25 -16z"/>
<path d="M2310 2021 c0 -9 -11 -12 -35 -9 -19 2 -35 0 -35 -4 0 -8 23 -12 50
-8 20 2 35 18 27 27 -4 3 -7 1 -7 -6z"/>
<path d="M2202 1981 c-10 -6 -7 -12 14 -25 37 -25 85 -24 125 2 22 14 28 22
17 22 -9 0 -20 -5 -23 -11 -21 -32 -124 -26 -111 7 6 16 -3 18 -22 5z"/>
<path d="M2000 1801 c0 -5 7 -12 16 -15 14 -5 15 -4 4 9 -14 17 -20 19 -20 6z"/>
<path d="M2110 1750 c0 -5 5 -10 11 -10 5 0 7 5 4 10 -3 6 -8 10 -11 10 -2 0
-4 -4 -4 -10z"/>
<path d="M1945 1721 c4 -8 9 -30 11 -49 2 -26 -2 -39 -19 -52 l-22 -19 22 -20
c23 -22 38 -28 28 -11 -13 21 38 9 67 -15 38 -32 55 -32 70 1 7 15 23 27 40
31 16 3 31 9 34 14 8 13 -20 50 -34 44 -10 -4 -12 2 -7 25 9 39 -14 49 -62 26
-30 -14 -41 -15 -67 -5 -17 7 -40 19 -50 28 -14 11 -17 12 -11 2z"/>
<path d="M2217 1699 c7 -7 15 -10 18 -7 3 3 -2 9 -12 12 -14 6 -15 5 -6 -5z"/>
<path d="M1900 1670 c0 -5 5 -10 11 -10 5 0 7 5 4 10 -3 6 -8 10 -11 10 -2 0
-4 -4 -4 -10z"/>
<path d="M2210 1656 c0 -2 7 -7 16 -10 8 -3 12 -2 9 4 -6 10 -25 14 -25 6z"/>
<path d="M1855 1640 c3 -5 11 -10 16 -10 6 0 7 5 4 10 -3 6 -11 10 -16 10 -6
0 -7 -4 -4 -10z"/>
<path d="M2210 1600 c0 -5 5 -10 11 -10 5 0 7 5 4 10 -3 6 -8 10 -11 10 -2 0
-4 -4 -4 -10z"/>
<path d="M2150 1570 c0 -6 7 -10 15 -10 8 0 15 2 15 4 0 2 -7 6 -15 10 -8 3
-15 1 -15 -4z"/>
<path d="M2120 1530 c0 -6 7 -10 15 -10 8 0 15 2 15 4 0 2 -7 6 -15 10 -8 3
-15 1 -15 -4z"/>
<path d="M1970 1520 c0 -5 5 -10 11 -10 5 0 7 5 4 10 -3 6 -8 10 -11 10 -2 0
-4 -4 -4 -10z"/>
<path d="M2050 1520 c0 -5 5 -10 11 -10 5 0 7 5 4 10 -3 6 -8 10 -11 10 -2 0
-4 -4 -4 -10z"/>
<path d="M1895 1500 c3 -5 11 -10 16 -10 6 0 7 5 4 10 -3 6 -11 10 -16 10 -6
0 -7 -4 -4 -10z"/>
<path d="M1867 1743 c-4 -3 -7 -11 -7 -17 0 -6 5 -5 12 2 6 6 9 14 7 17 -3 3
-9 2 -12 -2z"/>
<path d="M2472 1701 c-23 -6 -32 -23 -15 -28 11 -4 50 24 43 30 -3 2 -15 1
-28 -2z"/>
<path d="M2466 1383 c-3 -3 -6 -10 -6 -15 0 -13 53 -6 57 7 4 12 -40 18 -51 8z"/>
<path d="M2240 1364 l-75 -13 74 5 c40 3 83 9 95 14 20 8 20 9 1 8 -11 -1 -54
-7 -95 -14z"/>
<path d="M1907 1325 c-210 -30 -239 -35 -157 -29 102 7 420 52 370 52 -25 0
-120 -10 -213 -23z"/>
<path d="M2440 960 c0 -5 7 -10 15 -10 8 0 15 5 15 10 0 6 -7 10 -15 10 -8 0
-15 -4 -15 -10z"/>
<path d="M3518 2569 c-10 -5 -18 -17 -18 -26 0 -9 -3 -14 -6 -10 -3 3 -28 -3
-55 -14 -28 -10 -61 -19 -74 -19 -37 0 -31 -29 10 -46 19 -7 45 -14 59 -14 14
0 28 -4 31 -10 9 -15 -14 -12 -96 13 -43 13 -75 28 -77 37 -7 30 -51 40 -71
17 -17 -21 1 -113 20 -101 5 3 9 0 9 -5 0 -6 17 -12 38 -12 30 -2 32 -3 10 -6
-16 -2 -28 -11 -28 -18 0 -21 19 -28 36 -14 12 10 13 9 8 -5 -3 -9 -15 -16
-25 -16 -10 0 -19 -6 -19 -14 0 -8 -6 -17 -12 -20 -7 -3 -3 -3 10 0 20 5 32
-9 15 -19 -5 -2 -3 -3 4 -1 17 4 23 -32 8 -52 -8 -12 -14 -14 -19 -6 -9 15
-56 16 -56 2 0 -15 -26 -12 -40 5 -10 13 -10 19 4 33 9 10 16 23 16 28 0 5 -5
1 -11 -8 -5 -10 -14 -18 -19 -18 -18 0 -10 17 15 30 18 10 22 16 14 26 -15 18
-39 6 -39 -20 -1 -18 -2 -19 -10 -4 -7 11 -7 25 0 42 8 23 7 26 -15 32 -29 7
-31 16 -10 34 13 11 14 10 9 -3 -8 -21 37 -33 63 -18 10 6 13 11 8 11 -6 0
-11 23 -13 51 -2 63 -6 69 -42 69 -30 0 -51 -24 -43 -47 3 -7 -2 -13 -11 -13
-9 0 -43 -14 -77 -32 -55 -29 -59 -33 -43 -45 27 -19 48 -16 74 12 13 14 32
25 42 25 21 0 22 -4 8 -29 -7 -13 -3 -27 15 -53 13 -20 32 -54 40 -76 13 -31
26 -44 54 -56 33 -13 40 -21 50 -63 16 -60 46 -132 87 -203 48 -82 55 -119 37
-181 -12 -42 -13 -62 -4 -107 14 -71 14 -123 -1 -233 -9 -72 -9 -93 2 -113 16
-31 8 -121 -14 -164 -8 -16 -31 -50 -51 -76 -56 -74 -43 -93 50 -69 70 18 78
17 65 -6 -13 -25 -4 -30 57 -38 33 -3 61 0 87 11 31 13 37 13 33 2 -9 -22 17
-38 50 -30 15 3 52 19 80 35 59 33 64 34 60 17 -3 -20 109 -10 162 13 54 24
54 24 41 -2 -36 -67 65 -63 156 6 36 27 40 62 12 105 -21 32 -24 47 -15 93 8
39 26 47 47 22 17 -20 30 -19 30 3 0 28 17 49 30 36 8 -8 7 -14 -5 -24 -23
-19 -18 -38 17 -60 17 -10 38 -29 45 -42 12 -22 12 -22 7 8 -4 21 -1 34 10 43
35 29 2 93 -39 78 -7 -3 -29 9 -48 27 -19 17 -39 30 -44 29 -14 -5 -43 63 -43
101 0 25 7 38 27 51 25 17 26 17 18 -1 -12 -28 -18 -125 -8 -135 4 -4 8 18 9
49 1 58 8 101 24 137 5 11 11 27 13 35 3 8 6 -3 6 -25 0 -22 -8 -67 -18 -100
-22 -69 -16 -97 29 -140 39 -38 39 -22 0 17 -34 34 -39 74 -15 131 17 41 20
104 6 140 -15 38 -70 96 -110 116 -20 10 -81 31 -136 46 -55 15 -105 32 -111
36 -5 5 -16 39 -24 76 -7 37 -30 100 -51 140 -29 55 -40 91 -48 155 -11 82
-32 198 -46 250 -7 26 -5 27 37 31 l43 4 -51 1 c-51 2 -56 8 -45 50 1 2 15 -6
32 -18 16 -12 32 -20 35 -17 7 7 -60 47 -79 47 -9 0 -19 5 -22 10 -11 18 42
10 67 -10 14 -11 38 -24 52 -30 15 -5 24 -14 21 -20 -3 -5 -2 -10 4 -10 24 0
20 21 -6 32 -15 7 -41 23 -56 35 -16 13 -37 23 -47 23 -12 0 -17 5 -14 13 2 7
-4 22 -16 32 -17 15 -24 16 -46 7 -19 -9 -24 -17 -19 -32 5 -14 2 -20 -9 -20
-10 0 -16 9 -16 25 0 14 -8 29 -19 35 -24 12 -31 12 -53 -1z m55 -16 c4 -3 2
-12 -3 -19 -6 -6 -9 -17 -8 -24 2 -7 -3 -15 -11 -17 -9 -4 -11 0 -6 16 5 15 2
21 -9 21 -9 0 -16 7 -16 15 0 15 40 21 53 8z m105 -20 c2 -7 -3 -13 -12 -13
-9 0 -16 -6 -16 -14 0 -8 -4 -17 -9 -20 -5 -3 -9 10 -8 29 1 30 4 35 21 33 11
-2 21 -9 24 -15z m-158 -25 c0 -6 -11 -7 -24 -4 -14 3 -42 -2 -68 -14 -49 -22
-35 -27 17 -6 38 16 49 12 34 -15 -12 -24 -59 -25 -102 -2 l-32 17 35 7 c19 4
50 14 69 22 35 15 71 12 71 -5z m90 -24 c0 -26 -20 -55 -33 -48 -7 4 -6 1 2
-7 10 -11 15 -11 18 -1 7 18 30 15 38 -5 6 -16 9 -15 31 10 20 24 24 25 24 9
0 -16 -11 -25 -62 -50 -5 -2 -8 3 -8 10 0 9 -14 14 -40 15 -29 2 -40 -2 -40
-13 0 -7 5 -14 10 -14 7 0 7 -7 0 -22 -11 -22 -10 -22 4 -4 9 10 13 23 10 27
-3 5 4 9 15 9 11 0 23 -5 26 -11 4 -6 17 -14 29 -19 21 -9 21 -9 -3 -9 -17 -1
-21 -5 -17 -17 3 -8 2 -12 -4 -9 -6 3 -10 16 -11 28 0 13 -3 16 -6 9 -8 -21
17 -61 34 -55 13 5 13 2 4 -15 -16 -31 -26 -34 -57 -17 -25 13 -31 13 -39 1
-15 -20 -45 -1 -45 28 0 25 26 43 33 23 2 -7 4 0 4 16 0 20 -4 27 -18 27 -11
0 -19 5 -19 11 0 5 4 8 8 5 12 -7 54 52 46 65 -4 7 -17 0 -35 -17 -16 -15 -29
-24 -29 -20 0 18 53 57 71 53 10 -3 20 1 23 9 7 19 36 18 36 -2z m-446 0 c24
-9 2 -44 -24 -37 -20 5 -26 23 -13 36 8 9 17 9 37 1z m112 -6 c4 -6 2 -14 -4
-16 -7 -2 -12 -12 -12 -23 0 -18 -19 -28 -21 -11 0 4 -3 19 -5 35 -4 22 -1 27
15 27 11 0 23 -5 27 -12z m105 -49 c38 -12 69 -23 69 -25 0 -9 -69 -34 -94
-34 -15 0 -25 7 -29 20 -6 23 21 28 53 8 10 -7 22 -9 26 -5 12 12 -3 19 -53
24 -68 7 -82 11 -63 23 19 12 11 13 91 -11z m-251 -9 c0 -5 -12 -10 -28 -10
-26 0 -69 -22 -83 -43 -4 -6 -15 -7 -25 -3 -15 6 -10 12 31 36 49 29 105 40
105 20z m50 0 c0 -5 -4 -10 -9 -10 -6 0 -13 5 -16 10 -3 6 1 10 9 10 9 0 16
-4 16 -10z m300 -77 c0 -31 6 -54 18 -67 14 -17 17 -34 14 -85 l-4 -63 -17 28
c-9 16 -25 52 -36 79 -10 28 -27 64 -37 80 -10 17 -18 35 -18 41 0 12 61 44
73 37 4 -2 7 -25 7 -50z m240 -7 c0 -39 -6 -30 -13 19 -4 27 -3 35 3 25 5 -8
10 -28 10 -44z m-318 -18 c44 -83 49 -98 33 -98 -8 0 -15 7 -15 15 0 8 -4 15
-10 15 -5 0 -10 8 -10 18 0 9 -9 28 -19 41 -16 21 -19 51 -5 51 2 0 14 -19 26
-42z m268 13 c0 -10 -8 -25 -17 -32 -15 -12 -16 -12 -10 4 4 10 7 25 7 33 0 8
5 14 10 14 6 0 10 -8 10 -19z m-330 -8 c0 -5 -8 -17 -17 -28 -14 -18 -15 -18
-9 -2 3 10 6 23 6 28 0 5 5 9 10 9 6 0 10 -3 10 -7z m42 -110 c-2 -23 3 -35
16 -42 11 -6 32 -36 46 -68 15 -32 41 -75 57 -96 l30 -37 -33 2 c-33 3 -33 3
-32 -41 1 -36 7 -50 32 -72 l31 -27 -15 -48 c-8 -26 -14 -65 -14 -86 0 -36 -2
-38 -20 -28 -54 29 -79 -25 -39 -81 17 -24 24 -27 35 -18 8 6 14 21 14 33 1
44 31 -50 42 -131 9 -62 9 -95 0 -133 -10 -42 -9 -56 3 -80 13 -25 13 -29 0
-34 -10 -3 -15 1 -15 13 0 10 -8 29 -19 42 -18 22 -18 24 0 56 22 40 23 43 6
43 -7 0 -18 9 -24 19 -10 16 -9 26 4 51 15 31 15 32 -21 69 -20 20 -36 43 -36
50 0 6 -4 10 -9 6 -14 -8 -28 23 -32 69 -4 41 1 47 53 66 19 6 26 14 22 25 -4
8 -1 22 5 29 10 11 7 18 -11 30 -12 9 -28 16 -35 16 -7 0 -17 8 -22 18 -8 15
-6 18 12 18 20 -1 22 3 19 44 -5 57 -16 69 -42 45 -14 -13 -17 -22 -10 -29 5
-5 10 -17 10 -26 0 -8 -11 3 -24 25 -25 44 -20 75 13 75 10 0 29 9 42 19 21
17 22 20 7 26 -9 4 -26 1 -38 -5 -13 -7 -26 -8 -33 -2 -7 5 -24 12 -38 16 -51
12 -44 86 9 97 44 9 46 13 27 43 -18 27 -39 34 -50 16 -3 -5 -11 -10 -18 -10
-6 0 -1 7 11 16 13 9 22 26 22 42 0 20 3 23 9 13 13 -20 42 -6 35 16 -4 14 -3
14 7 -2 7 -11 12 -34 11 -52z m174 52 c-4 -12 0 -14 22 -9 15 4 35 11 46 16
12 7 16 7 12 0 -10 -17 5 -42 24 -42 25 0 27 -5 40 -86 6 -38 13 -77 16 -86 4
-14 -1 -18 -25 -18 -39 0 -46 -13 -25 -47 23 -36 55 -62 77 -63 21 0 22 10 2
36 -8 10 -14 24 -14 29 0 6 15 -15 34 -45 21 -33 33 -61 29 -72 -7 -23 15 -86
42 -120 12 -15 24 -33 26 -39 3 -10 15 -10 53 0 55 14 88 -1 42 -18 -26 -10
-37 -31 -17 -31 5 0 7 -13 4 -29 -8 -38 20 -50 56 -22 14 11 45 30 69 42 43
22 44 22 79 3 19 -10 46 -35 60 -56 35 -53 25 -91 -38 -153 -28 -27 -50 -54
-50 -60 0 -6 -16 -28 -36 -49 -35 -37 -36 -40 -18 -53 13 -9 32 -12 61 -7 41
6 43 5 43 -20 0 -23 -4 -26 -33 -26 -30 0 -35 -4 -44 -37 l-10 -38 -2 35 c-1
24 -13 49 -36 79 -22 28 -32 48 -26 55 4 6 11 30 14 54 6 45 6 45 -47 57 -26
6 -28 9 -23 42 5 28 4 34 -6 24 -6 -6 -12 -29 -12 -51 0 -39 0 -40 -35 -40
-34 0 -178 35 -189 45 -3 3 0 23 6 45 5 22 7 40 2 40 -4 0 -10 -13 -14 -30 -4
-16 -10 -29 -13 -29 -28 4 -40 -4 -46 -33 -9 -45 30 -70 41 -27 5 17 11 8 29
-42 24 -67 24 -79 -6 -79 -11 0 -20 -10 -24 -26 -9 -33 -1 -42 25 -26 18 11
19 10 14 -11 -4 -13 3 -46 14 -75 21 -52 21 -52 1 -52 -15 0 -20 -7 -20 -25 0
-28 24 -34 37 -10 7 12 10 11 21 -5 10 -16 9 -21 -9 -30 -16 -9 -18 -14 -8
-26 9 -11 8 -14 -7 -14 -21 0 -46 14 -45 24 5 34 -21 35 -54 1 -14 -13 -25
-19 -25 -14 0 15 19 48 41 70 19 19 26 49 10 49 -4 0 -11 23 -14 51 -5 38 -13
55 -32 71 l-26 21 24 26 c33 36 34 94 1 61 -10 -10 -44 40 -59 88 -6 19 -3 22
24 22 20 0 31 5 31 14 0 8 6 16 13 19 8 3 3 11 -13 25 -30 26 -44 27 -64 7
-14 -14 -16 -13 -22 10 -3 14 -10 25 -16 25 -5 0 -6 -5 -2 -12 4 -7 3 -8 -4
-4 -24 14 -12 51 23 74 45 28 48 70 9 101 -30 23 -31 32 -19 159 7 69 12 85
29 94 11 6 26 17 33 24 7 7 18 14 25 16 20 7 -10 38 -36 38 -28 0 -76 52 -76
83 0 22 4 25 28 21 16 -2 37 4 52 15 24 19 24 20 6 40 -24 27 -30 26 -61 -4
-22 -23 -25 -24 -25 -7 0 10 8 28 18 40 20 26 26 28 18 7z m187 -27 c3 -18 7
-47 10 -64 6 -33 -6 -64 -17 -45 -4 6 -2 11 4 11 10 0 3 50 -9 60 -10 8 -12
82 -2 76 5 -3 11 -20 14 -38z m-239 -151 c10 -27 16 -51 13 -53 -3 -3 -8 5
-12 18 -4 13 -11 25 -16 28 -4 3 -11 21 -14 40 -8 45 7 29 29 -33z m256 1 c0
-19 -2 -20 -10 -8 -13 19 -13 30 0 30 6 0 10 -10 10 -22z m76 -180 c9 -27 13
-52 10 -55 -3 -4 -6 -1 -6 6 0 6 -7 28 -17 49 -9 20 -15 40 -15 45 1 4 -5 7
-14 7 -11 0 -15 6 -11 20 3 13 0 20 -9 20 -8 0 -14 6 -14 14 0 8 -3 23 -6 33
-3 10 10 -6 30 -36 19 -30 43 -76 52 -103z m-405 -407 c8 -36 6 -47 -11 -72
-12 -16 -20 -39 -18 -52 2 -18 8 -22 36 -19 23 1 32 -2 30 -10 -2 -6 -14 -12
-26 -13 -33 -2 -46 -19 -33 -41 27 -49 28 -49 50 -30 18 16 23 17 37 5 13 -11
15 -25 11 -77 -7 -65 -25 -117 -28 -77 -3 37 2 139 7 150 3 5 -4 -2 -16 -17
-12 -16 -28 -28 -35 -28 -8 0 -17 -4 -20 -10 -7 -12 13 -52 32 -63 22 -13 35
-55 23 -78 -9 -15 -22 -19 -70 -19 -33 0 -60 4 -60 9 0 4 21 15 47 23 56 18
63 30 27 46 -21 10 -25 17 -20 40 11 57 10 110 -4 127 -12 14 -12 27 -1 83 7
37 13 93 13 126 0 66 14 64 29 -3z m153 -79 c5 -13 3 -22 -3 -22 -6 0 -11 10
-11 23 0 12 -7 31 -15 41 -8 11 -15 29 -14 40 0 21 26 -28 43 -82z m223 5 c1
-2 -5 -24 -15 -49 -14 -40 -14 -52 -4 -82 10 -27 10 -45 1 -80 -6 -26 -15 -49
-19 -51 -14 -8 -22 51 -15 107 5 40 1 67 -14 112 -12 33 -21 60 -21 62 0 2 83
-16 87 -19z m153 -30 c0 -7 14 -35 31 -61 34 -54 33 -76 -4 -69 -21 4 -25 0
-32 -29 -12 -50 -12 -53 13 -50 20 3 22 -1 24 -40 0 -24 2 -55 2 -70 2 -25 -2
-28 -39 -33 -97 -13 -116 -13 -104 1 6 8 23 11 45 7 28 -5 34 -2 34 12 0 13
-6 16 -23 13 -21 -4 -22 -2 -13 18 6 12 16 19 23 17 16 -6 63 23 63 38 0 7
-12 9 -31 7 -27 -4 -30 -2 -25 16 3 12 6 34 6 49 0 18 4 26 11 21 7 -4 7 1 -1
15 -8 17 -8 26 0 36 12 14 3 65 -11 65 -10 0 -12 33 -2 43 11 12 33 8 33 -6z
m210 -77 c12 -23 12 -24 -4 -10 -25 20 -38 58 -29 84 6 18 8 16 13 -14 3 -19
12 -46 20 -60z m-304 68 c21 6 39 10 41 8 2 -2 0 -32 -4 -67 -7 -57 -11 -64
-30 -65 -24 -1 -62 -40 -63 -63 0 -8 6 -11 15 -7 8 3 22 9 30 12 11 5 13 2 9
-10 -4 -10 -18 -16 -35 -16 -21 0 -32 -6 -39 -22 -15 -38 -11 -10 7 50 9 32
16 60 15 64 -1 4 11 17 28 29 31 23 31 39 1 39 -25 0 -45 26 -37 47 6 14 9 15
16 3 7 -11 15 -12 46 -2z m-256 -48 c0 -22 -3 -39 -7 -39 -43 7 -59 -25 -27
-52 14 -11 18 -11 28 4 10 12 15 14 24 5 20 -20 14 -35 -18 -48 -35 -15 -39
-37 -8 -42 13 -2 24 -10 26 -18 2 -11 -6 -15 -30 -15 -23 0 -34 -5 -36 -17 -3
-14 3 -18 25 -18 16 0 34 5 41 12 9 9 12 8 12 -5 0 -12 -8 -17 -30 -17 -26 0
-28 -2 -21 -22 5 -13 16 -22 25 -22 9 1 16 -4 16 -12 0 -8 -3 -14 -7 -15 -5 0
-32 -1 -61 -2 -43 -2 -49 0 -36 10 9 7 22 14 28 16 8 3 7 8 -1 19 -9 10 -10
24 -3 49 16 61 18 128 3 140 -22 19 -15 56 20 92 17 19 33 35 35 36 1 0 2 -17
2 -39z m307 -140 c-1 -43 -4 -74 -6 -68 -2 6 -9 1 -16 -12 l-12 -23 -13 22
c-6 13 -9 33 -6 45 7 29 46 116 51 116 3 0 4 -36 2 -80z m153 -19 c0 -25 -4
-51 -8 -57 -8 -13 -42 -26 -40 -16 1 4 -2 15 -7 26 -5 11 -1 40 10 74 16 52
18 55 31 37 8 -10 14 -39 14 -64z m-400 -21 c0 -63 -16 -83 -23 -29 -7 53 2
107 14 87 5 -7 9 -33 9 -58z m341 43 c-12 -20 -14 -14 -5 12 4 9 9 14 11 11 3
-2 0 -13 -6 -23z m125 -50 c0 -25 -6 -42 -18 -51 -25 -18 -22 -32 7 -32 14 0
25 5 25 11 0 8 4 8 14 0 8 -7 12 -21 9 -31 -4 -16 -15 -20 -47 -21 -22 -1 -49
0 -59 1 -10 1 -25 -4 -33 -10 -15 -13 -17 -10 -8 14 4 11 14 14 37 9 32 -6 32
-6 14 15 -17 18 -17 24 -5 61 8 23 17 39 19 36 4 -4 28 15 45 34 0 1 0 -16 0
-36z m-595 -5 c-1 -5 -1 -18 -1 -30 0 -26 -14 -14 -25 20 -5 19 -3 23 10 20 9
-1 16 -6 16 -10z m313 -24 c3 -8 2 -13 -3 -9 -5 3 -17 -3 -27 -12 -17 -17 -17
-18 0 -21 9 -2 24 2 33 10 15 12 15 11 2 -9 -18 -30 -41 -33 -56 -8 -10 17 -8
23 15 42 15 12 28 22 28 23 1 0 5 -7 8 -16z m186 -49 c-7 -8 -16 -15 -21 -15
-5 0 -1 8 9 18 20 22 31 19 12 -3z m-523 -20 c-4 -8 -17 -15 -29 -15 l-23 1
24 20 c26 21 37 19 28 -6z m-182 -34 c-3 -6 -16 -16 -28 -22 -21 -11 -21 -10
2 15 23 25 40 29 26 7z m115 3 c0 -6 -25 -18 -56 -26 -48 -14 -55 -14 -50 -1
3 8 6 18 6 23 0 9 37 16 77 15 13 0 23 -5 23 -11z m519 -10 c-12 -14 -100 -47
-107 -39 -3 2 1 11 8 20 7 8 9 16 4 16 -14 2 48 14 79 15 21 1 25 -2 16 -12z
m-109 3 c0 -2 -12 -14 -27 -28 -24 -22 -24 -13 0 19 8 11 27 17 27 9z m297
-11 c-2 -6 -11 -10 -20 -10 -9 1 -14 -2 -11 -7 6 -10 -63 -46 -72 -37 -3 4 -1
16 6 27 6 12 9 25 6 29 -2 4 18 7 45 8 32 0 48 -3 46 -10z m-427 -10 c28 2 50
1 50 -1 0 -7 -86 -55 -97 -55 -6 0 -11 16 -10 36 1 20 3 32 4 27 2 -6 25 -9
53 -7z m298 -16 c-12 -16 -23 -30 -25 -30 -7 0 20 45 31 52 18 13 18 9 -6 -22z
m-527 -13 l-23 -22 17 28 c10 15 20 25 23 22 3 -3 -5 -16 -17 -28z m113 19
c-9 -25 -84 -49 -84 -27 0 29 14 41 51 41 28 0 37 -4 33 -14z m34 -16 c-14
-41 -33 -52 -24 -14 6 23 21 43 33 44 1 0 -3 -14 -9 -30z"/>
<path d="M3389 2117 c-45 -34 -25 -88 25 -66 27 13 30 20 20 57 -7 25 -21 28
-45 9z"/>
<path d="M3639 2185 c-1 -3 -2 -8 -3 -12 -1 -5 -7 -23 -15 -41 -15 -37 -14
-40 18 -44 19 -3 25 4 35 37 7 22 11 46 8 53 -3 11 -41 18 -43 7z"/>
<path d="M3581 1906 c-30 -32 -25 -80 10 -84 13 -2 34 -15 45 -29 22 -25 44
-24 44 2 0 8 9 19 20 25 28 15 18 46 -23 82 -39 34 -67 35 -96 4z"/>
<path d="M3675 1707 c-36 -35 -65 -67 -65 -70 0 -3 11 -18 25 -33 24 -26 25
-26 59 -10 19 9 39 16 45 16 6 0 11 7 11 16 0 12 8 15 33 12 32 -3 32 -3 29
37 -4 40 -22 69 -54 86 -15 8 -31 -3 -83 -54z"/>
<path d="M4105 1614 c-65 -34 -81 -65 -44 -84 12 -7 18 -18 15 -26 -9 -23 31
-17 48 8 12 17 18 20 28 10 19 -19 38 -14 48 14 8 21 5 31 -18 60 -31 39 -36
40 -77 18z"/>
<path d="M3830 1586 c-20 -13 -41 -30 -48 -39 -11 -13 -10 -17 10 -27 13 -7
34 -24 46 -38 16 -18 25 -23 29 -14 3 7 18 19 34 27 39 21 42 65 4 65 -19 0
-24 5 -22 21 3 30 -12 32 -53 5z"/>
<path d="M3694 1195 c-3 -8 -3 -19 1 -25 9 -14 35 6 35 26 0 19 -29 18 -36 -1z"/>
<path d="M3955 1089 c-4 -6 -5 -12 -2 -15 7 -7 37 7 37 17 0 13 -27 11 -35 -2z"/>
<path d="M6855 2514 c-46 -18 -49 -18 -93 -9 -29 7 -34 5 -39 -14 -3 -12 -13
-21 -25 -21 -32 0 -78 -29 -88 -56 -6 -14 -10 -40 -10 -57 0 -18 -7 -41 -15
-51 -22 -28 -18 -59 11 -111 28 -50 25 -85 -7 -85 -29 0 -23 -19 11 -34 17 -7
27 -15 24 -19 -4 -3 1 -18 10 -31 22 -35 20 -51 -8 -70 -14 -8 -30 -31 -37
-50 -7 -19 -21 -37 -32 -40 -16 -4 -18 -8 -8 -19 9 -12 6 -18 -13 -31 -39 -25
-50 -53 -33 -79 23 -36 158 -167 197 -193 37 -24 37 -26 29 -69 -5 -25 -16
-70 -25 -100 -19 -68 -12 -81 51 -90 42 -7 43 -8 49 -52 11 -82 7 -131 -15
-167 -11 -19 -18 -40 -14 -46 3 -5 0 -7 -8 -4 -8 3 -18 1 -22 -5 -3 -7 2 -11
14 -11 11 0 43 -9 72 -20 28 -11 60 -18 70 -15 11 3 28 8 40 11 17 5 20 2 17
-17 -2 -16 -13 -26 -35 -33 -40 -11 -45 -31 -6 -21 38 9 53 23 53 51 0 12 5
26 10 29 7 4 7 11 2 18 -12 17 -7 256 7 270 7 7 13 3 20 -15 12 -32 17 -225 7
-255 -5 -15 -3 -23 4 -23 8 0 10 -9 7 -23 -8 -28 6 -52 30 -52 10 0 18 -6 18
-13 0 -7 6 -16 13 -21 8 -5 13 -10 12 -12 -1 -2 3 -16 9 -31 8 -21 15 -25 33
-21 18 4 20 3 8 -6 -12 -8 -6 -11 25 -11 l40 0 -42 19 c-24 11 -48 32 -56 48
-9 15 -29 41 -46 57 -38 36 -39 49 -3 72 20 13 24 14 14 2 -10 -13 -9 -17 10
-22 43 -11 78 -6 95 13 15 19 17 19 31 3 7 -9 11 -12 7 -5 -3 7 4 17 16 24 19
10 20 13 6 20 -33 19 -50 71 -52 165 -1 50 -5 96 -9 103 -5 7 0 10 11 8 10 -1
20 1 22 6 4 10 -10 145 -19 178 -8 26 0 36 116 148 68 66 124 128 124 138 0
10 -14 33 -32 52 -27 28 -30 36 -19 52 9 16 9 21 -3 25 -8 3 -19 3 -25 0 -5
-4 -12 3 -16 14 -10 31 -55 80 -73 80 -11 0 -5 -7 14 -19 17 -11 36 -33 42
-49 10 -29 8 -33 -48 -86 -57 -54 -81 -65 -108 -48 -19 13 -16 91 6 147 15 39
25 51 44 53 23 3 25 6 24 60 -1 31 -5 62 -9 68 -3 6 0 32 9 58 15 43 15 48 -1
72 -12 18 -15 36 -10 63 5 30 1 44 -21 76 -69 104 -122 136 -239 141 -58 3
-91 0 -120 -12z m40 -110 c-14 -20 -25 -41 -25 -47 0 -6 -3 -8 -6 -5 -7 7 12
45 34 71 25 28 23 20 -3 -19z m-75 6 c0 -5 -5 -10 -11 -10 -5 0 -7 5 -4 10 3
6 8 10 11 10 2 0 4 -4 4 -10z m164 -57 c3 -3 10 5 15 18 l10 24 0 -27 c1 -36
19 -45 30 -16 9 23 9 23 20 -6 11 -28 12 -28 26 -10 13 18 14 18 24 -9 6 -16
11 -34 11 -40 0 -7 4 -6 10 3 8 12 10 9 10 -12 0 -23 4 -28 25 -28 14 0 25 -5
25 -11 0 -5 -5 -7 -12 -3 -7 5 -9 2 -6 -7 3 -8 9 -21 13 -31 4 -11 0 -18 -14
-23 -11 -3 -22 -18 -26 -34 -8 -36 -42 -69 -86 -81 -45 -13 -151 -13 -186 1
-49 18 -101 59 -113 90 -9 21 -18 28 -30 24 -25 -8 -48 48 -30 70 7 9 19 14
26 11 7 -3 15 6 18 19 5 18 11 22 23 18 10 -4 14 -2 10 4 -3 5 -2 23 3 39 l8
29 1 -30 2 -30 14 25 c13 22 14 23 15 5 1 -18 2 -18 14 4 l14 24 7 -22 c8 -28
20 -19 46 36 l18 38 -5 -45 c-3 -30 -1 -38 4 -26 6 15 11 17 17 7 11 -18 24 5
26 44 l1 30 8 -33 c4 -18 10 -36 14 -39z m-152 25 c-7 -7 -12 -8 -12 -2 0 14
12 26 19 19 2 -3 -1 -11 -7 -17z m-62 -22 c0 -3 -4 -8 -10 -11 -5 -3 -10 -1
-10 4 0 6 5 11 10 11 6 0 10 -2 10 -4z m370 -41 c0 -5 -5 -3 -10 5 -5 8 -10
20 -10 25 0 6 5 3 10 -5 5 -8 10 -19 10 -25z m77 -7 c-3 -8 -6 -5 -6 6 -1 11
2 17 5 13 3 -3 4 -12 1 -19z m-520 -10 c-3 -8 -6 -5 -6 6 -1 11 2 17 5 13 3
-3 4 -12 1 -19z m511 -53 c-3 -3 -9 2 -12 12 -6 14 -5 15 5 6 7 -7 10 -15 7
-18z m-483 -165 c-9 -18 -19 -30 -21 -27 -3 2 3 20 13 40 10 19 19 31 21 27 2
-5 -4 -23 -13 -40z m-23 18 c-7 -7 -12 -8 -12 -2 0 14 12 26 19 19 2 -3 -1
-11 -7 -17z m488 -45 c-11 -17 -11 -17 -6 0 3 10 6 24 7 30 0 9 2 9 5 0 3 -7
0 -20 -6 -30z m-27 7 c3 -11 1 -18 -4 -14 -5 3 -9 12 -9 20 0 20 7 17 13 -6z
m-366 -22 c-3 -7 -5 -2 -5 12 0 14 2 19 5 13 2 -7 2 -19 0 -25z m-150 0 c-3
-8 -6 -5 -6 6 -1 11 2 17 5 13 3 -3 4 -12 1 -19z m460 0 c-3 -8 -6 -5 -6 6 -1
11 2 17 5 13 3 -3 4 -12 1 -19z m-118 -6 c43 2 66 -1 68 -9 6 -16 -54 -26
-127 -21 -65 5 -75 10 -67 32 5 13 12 14 34 5 15 -6 57 -9 92 -7z m165 -7 c3
-8 1 -15 -4 -15 -6 0 -10 7 -10 15 0 8 2 15 4 15 2 0 6 -7 10 -15z m-387 -17
c-3 -8 -6 -5 -6 6 -1 11 2 17 5 13 3 -3 4 -12 1 -19z m-30 -10 c-3 -8 -6 -5
-6 6 -1 11 2 17 5 13 3 -3 4 -12 1 -19z m359 -11 c3 -3 -4 -26 -16 -51 l-23
-44 -61 -4 c-106 -5 -121 -1 -143 40 -11 20 -26 36 -34 34 -10 -3 -9 1 3 15
14 16 32 18 143 17 69 -1 128 -4 131 -7z m-348 -66 c28 -42 33 -56 30 -98 -3
-46 -4 -48 -34 -51 -26 -3 -41 6 -88 49 -65 60 -71 85 -25 123 48 40 78 34
117 -23z m126 -57 c3 -8 2 -12 -4 -9 -6 3 -10 10 -10 16 0 14 7 11 14 -7z
m523 -46 c45 -42 34 -65 -96 -186 -66 -62 -125 -112 -133 -112 -10 0 -10 2 2
10 24 15 6 20 -34 9 -21 -6 -40 -8 -44 -5 -3 3 9 9 27 12 53 11 45 24 -16 25
l-58 2 53 10 c28 5 52 13 52 18 0 4 -18 10 -40 14 -59 10 -49 21 16 16 49 -3
56 -1 51 13 -5 13 1 16 33 16 22 0 40 5 40 11 0 6 9 24 20 39 11 16 19 33 18
39 -3 10 69 91 80 91 3 0 16 -10 29 -22z m-817 -7 c0 -5 20 -22 44 -37 32 -20
42 -32 35 -40 -6 -8 -1 -27 18 -58 29 -47 36 -50 88 -30 14 6 16 3 11 -13 -8
-25 22 -36 76 -28 l33 5 -35 -11 c-21 -6 -40 -20 -47 -35 -10 -23 -9 -26 20
-39 l32 -15 -30 4 c-16 3 -39 7 -50 11 -16 4 -15 3 3 -6 12 -7 22 -16 22 -21
0 -18 -124 76 -206 156 -90 89 -99 111 -62 146 23 21 48 27 48 11z m640 -58
c0 -11 7 -13 25 -9 31 8 31 1 3 -41 -38 -54 -74 -42 -84 28 l-6 46 31 -5 c19
-2 31 -10 31 -19z m-440 -42 c0 -47 -2 -50 -31 -56 -17 -4 -32 -5 -33 -3 -1 1
-12 16 -24 32 -28 37 -28 46 3 46 14 0 28 7 31 15 4 8 17 15 30 15 22 0 24 -4
24 -49z m98 -158 c-10 -2 -26 -2 -35 0 -10 3 -2 5 17 5 19 0 27 -2 18 -5z
m-21 -269 c-3 -3 -12 -4 -19 -1 -8 3 -5 6 6 6 11 1 17 -2 13 -5z m180 0 c-3
-3 -12 -4 -19 -1 -8 3 -5 6 6 6 11 1 17 -2 13 -5z m132 -8 c7 -8 11 -36 10
-63 0 -26 2 -66 6 -89 8 -48 4 -50 -81 -60 -64 -8 -60 -13 -68 114 l-5 92 57
1 c41 0 51 3 37 9 -18 8 -17 9 6 9 15 1 32 -5 38 -13z m-203 -37 c-3 -17 -6
-60 -6 -96 l0 -64 -67 3 -68 3 4 65 c2 36 8 68 15 72 6 5 2 8 -11 8 -16 0 -23
6 -23 20 0 18 7 20 81 20 l82 0 -7 -31z m-126 -194 c0 -16 -6 -25 -15 -25 -16
0 -19 9 -9 34 9 25 24 19 24 -9z m50 0 c0 -18 -5 -25 -19 -25 -14 0 -17 6 -13
25 2 14 11 25 18 25 8 0 14 -10 14 -25z m40 -5 c0 -16 -4 -30 -10 -30 -5 0
-10 14 -10 30 0 17 5 30 10 30 6 0 10 -13 10 -30z m33 -10 c-7 -28 -13 -25
-13 6 0 14 4 23 9 20 5 -3 7 -15 4 -26z m220 10 c3 -13 0 -20 -9 -20 -8 0 -14
9 -14 20 0 11 4 20 9 20 5 0 11 -9 14 -20z m24 -2 c-3 -8 -6 -5 -6 6 -1 11 2
17 5 13 3 -3 4 -12 1 -19z m-133 -4 c4 -9 4 -19 2 -21 -8 -8 -26 8 -26 23 0
19 16 18 24 -2z m56 -4 c0 -11 -4 -20 -10 -20 -5 0 -10 2 -10 4 0 2 -3 11 -6
20 -4 11 -1 16 10 16 9 0 16 -8 16 -20z m110 -14 c0 -3 -4 -8 -10 -11 -5 -3
-10 -1 -10 4 0 6 5 11 10 11 6 0 10 -2 10 -4z m-93 -22 c-3 -3 -12 -4 -19 -1
-8 3 -5 6 6 6 11 1 17 -2 13 -5z m23 -14 c0 -5 -15 -9 -32 -9 l-33 1 30 8 c17
4 31 8 33 9 1 0 2 -3 2 -9z"/>
<path d="M7091 2304 c0 -11 3 -14 6 -6 3 7 2 16 -1 19 -3 4 -6 -2 -5 -13z"/>
<path d="M6870 2284 c0 -8 4 -14 8 -14 5 0 7 -13 4 -29 -5 -39 16 -50 39 -20
20 25 25 54 11 63 -5 3 -20 7 -35 10 -19 3 -27 0 -27 -10z"/>
<path d="M6998 2292 c-24 -5 -25 -70 -2 -79 20 -7 30 4 37 44 6 33 -3 43 -35
35z"/>
<path d="M6705 2231 c-3 -5 -2 -12 3 -15 5 -3 9 1 9 9 0 17 -3 19 -12 6z"/>
<path d="M6905 2179 c-10 -15 -2 -20 43 -26 39 -5 60 6 47 27 -4 6 -12 4 -22
-5 -9 -9 -22 -14 -30 -11 -8 3 -19 6 -24 6 -6 0 -7 5 -4 10 3 6 4 10 1 10 -3
0 -8 -5 -11 -11z"/>
<path d="M6857 2134 c-9 -10 38 -44 74 -54 37 -11 75 2 106 35 22 23 22 24 3
22 -11 -1 -20 -7 -20 -14 0 -17 -33 -33 -70 -33 -34 0 -83 27 -74 41 6 10 -9
12 -19 3z"/>
<path d="M6920 1964 c0 -8 6 -14 14 -14 8 0 16 -4 18 -8 5 -14 68 7 68 22 0
10 -15 14 -50 14 -36 0 -50 -4 -50 -14z"/>
<path d="M5361 2501 c-8 -5 -38 -7 -67 -4 -65 7 -92 -8 -129 -72 -15 -25 -31
-45 -36 -45 -5 0 -9 -7 -9 -15 0 -8 -15 -22 -32 -32 -31 -16 -32 -18 -10 -21
17 -3 21 -7 13 -16 -20 -24 -43 -100 -31 -104 7 -3 2 -14 -11 -28 -12 -13 -19
-27 -16 -31 4 -3 1 -13 -6 -21 -8 -11 -9 -16 -1 -19 6 -2 9 -15 6 -30 -3 -17
1 -30 12 -38 15 -12 15 -13 0 -19 -10 -4 -22 -2 -28 4 -15 15 -24 12 -31 -10
-3 -10 -35 -42 -71 -71 -44 -35 -62 -55 -55 -62 7 -7 4 -22 -10 -48 -24 -48
-24 -54 3 -81 16 -16 21 -32 19 -62 -2 -39 1 -44 102 -142 l105 -102 -18 -40
c-22 -48 -39 -59 -108 -68 -48 -6 -132 -53 -132 -73 0 -17 122 -20 164 -4 42
15 129 20 166 8 23 -7 26 -38 9 -100 -15 -56 -32 -71 -131 -121 -84 -42 -99
-56 -78 -69 5 -3 6 -13 3 -22 -6 -15 6 -16 118 -9 148 8 258 23 274 36 12 10
6 84 -9 108 -5 8 6 44 26 88 29 66 36 74 60 74 24 0 28 -5 33 -37 3 -21 8 -49
11 -63 14 -66 15 -88 5 -94 -6 -4 -11 -23 -11 -41 0 -33 2 -35 53 -49 47 -14
263 -46 305 -46 57 1 47 49 -19 96 -24 17 -50 30 -57 28 -7 -1 -8 0 -2 3 6 3
-1 16 -16 31 -37 37 -53 80 -52 140 1 43 5 52 19 52 10 0 21 5 24 11 4 5 18
14 31 19 27 11 30 33 9 70 -24 42 -18 55 35 80 39 18 50 29 50 46 0 13 -7 27
-16 32 -14 8 -12 13 10 47 14 21 26 46 26 56 0 10 4 20 9 23 20 13 23 123 5
198 -15 62 -24 79 -60 115 -23 23 -53 43 -66 45 -19 2 -23 9 -23 39 0 20 -5
42 -11 50 -28 37 -53 98 -41 103 9 3 8 8 -3 16 -11 9 -12 13 -3 17 14 5 8 48
-10 71 -6 8 -6 12 2 12 19 0 12 21 -16 55 -16 19 -40 52 -55 74 -20 29 -38 43
-65 50 -62 16 -147 22 -162 12z m-119 -40 c-15 -15 -36 -43 -47 -61 -11 -18
-31 -40 -44 -48 -20 -14 -18 -7 16 49 34 55 69 88 95 89 3 0 -6 -13 -20 -29z
m278 2 c14 -9 32 -26 39 -37 8 -12 30 -36 47 -54 28 -28 30 -32 11 -26 -29 8
-35 14 -55 55 -9 18 -32 44 -51 56 -19 13 -30 23 -25 23 5 0 21 -8 34 -17z
m-226 -3 c-22 -9 -64 -60 -64 -78 0 -18 -70 -72 -93 -72 -20 0 -19 2 8 19 31
18 85 76 85 90 0 17 42 51 63 50 l22 0 -21 -9z m233 -34 c12 -15 23 -32 23
-39 0 -7 -5 -4 -10 5 -11 19 -53 33 -123 43 -70 9 -49 28 26 23 50 -4 64 -9
84 -32z m-212 -3 c-79 -90 -114 -123 -131 -123 -15 0 -12 5 12 20 17 11 37 32
44 47 21 42 61 83 81 83 15 0 14 -4 -6 -27z m11 -42 c-9 -17 -26 -35 -37 -42
-24 -12 -25 -15 19 56 28 45 42 33 18 -14z m156 24 c24 -4 39 -12 43 -25 3
-11 17 -28 31 -39 31 -24 21 -30 -33 -19 -28 6 -43 15 -43 25 0 9 -6 13 -15
10 -20 -8 -117 22 -110 33 4 6 18 4 35 -5 32 -16 120 -21 120 -6 0 6 -15 7
-34 4 -21 -3 -47 1 -70 12 -47 22 -46 35 2 24 20 -4 54 -11 74 -14z m-47 -95
c-4 -6 11 -11 37 -12 24 -1 53 -2 66 -3 13 0 27 -7 31 -13 4 -7 14 -12 22 -10
9 2 15 -8 17 -29 2 -25 -1 -33 -12 -33 -9 0 -16 -7 -16 -15 0 -23 -40 -74 -75
-95 -77 -47 -218 -29 -282 35 -18 18 -33 40 -33 49 0 10 -9 16 -25 16 -15 0
-28 7 -32 16 -9 24 11 49 36 47 13 -2 21 3 21 12 0 8 4 15 9 15 5 0 18 3 28 6
16 6 16 5 -2 -10 -18 -16 -18 -17 -2 -12 10 3 36 9 58 12 21 4 36 10 34 15 -3
4 16 10 42 12 27 2 56 4 66 5 10 1 15 -2 12 -8z m-152 -7 c-7 -2 -19 -2 -25 0
-7 3 -2 5 12 5 14 0 19 -2 13 -5z m362 -13 c3 -5 1 -10 -4 -10 -6 0 -11 5 -11
10 0 6 2 10 4 10 3 0 8 -4 11 -10z m-518 -35 c-7 -13 -14 -20 -15 -14 -5 14 6
39 17 39 5 0 4 -11 -2 -25z m528 -5 c3 -5 1 -10 -4 -10 -6 0 -11 5 -11 10 0 6
2 10 4 10 3 0 8 -4 11 -10z m-574 -33 c-10 -9 -11 -8 -5 6 3 10 9 15 12 12 3
-3 0 -11 -7 -18z m36 -18 c8 -8 5 -17 -15 -34 -18 -16 -27 -35 -31 -69 -3 -26
-10 -46 -16 -45 -5 0 -8 6 -6 13 2 6 5 20 6 32 1 11 5 26 10 34 5 9 4 15 -4
18 -8 3 -5 9 8 19 12 8 21 21 21 29 0 17 12 18 27 3z m553 -73 c0 -18 -1 -18
-20 -1 -11 10 -20 30 -20 44 l0 26 20 -25 c11 -14 20 -34 20 -44z m-533 26
c-38 -40 -45 -82 -16 -107 22 -20 22 -20 14 0 -15 34 -9 75 15 100 l23 24 17
-22 c11 -14 16 -33 13 -49 -3 -17 2 -36 17 -56 12 -17 19 -35 16 -41 -4 -6 -3
-11 3 -11 21 0 22 23 2 51 -11 15 -21 37 -21 49 0 20 1 20 32 4 27 -14 30 -18
16 -23 -13 -4 -15 -10 -8 -21 15 -24 12 -50 -11 -81 -27 -38 -39 -37 -33 4 4
24 -1 42 -21 71 -20 29 -25 47 -21 68 7 34 -7 37 -21 5 -9 -19 -7 -30 9 -55
17 -28 18 -35 7 -67 -8 -21 -19 -34 -27 -33 -18 4 -43 69 -49 128 -5 39 -2 46
23 67 40 32 53 29 21 -5z m495 -94 c5 -15 7 -36 3 -45 -5 -15 -10 -12 -25 18
-16 31 -17 42 -7 75 l11 39 4 -30 c1 -16 8 -42 14 -57z m-78 48 c-3 -8 -1 -24
6 -35 8 -17 8 -21 -3 -21 -18 0 -28 45 -14 59 15 15 17 14 11 -3z m124 -43
c19 -35 14 -37 -13 -5 -26 32 -36 64 -12 40 8 -7 19 -23 25 -35z m32 6 c0 -6
-4 -7 -10 -4 -5 3 -10 11 -10 16 0 6 5 7 10 4 6 -3 10 -11 10 -16z m-190 1 c0
-5 -2 -10 -4 -10 -3 0 -8 5 -11 10 -3 6 -1 10 4 10 6 0 11 -4 11 -10z m-210
-4 c0 -2 -7 -9 -15 -16 -13 -11 -14 -10 -9 4 5 14 24 23 24 12z m185 -15 c0
-21 -74 -43 -123 -38 -51 5 -71 20 -54 39 15 19 177 18 177 -1z m-9 -46 c-11
-8 -29 -15 -40 -14 -15 0 -11 4 14 14 45 17 49 17 26 0z m-386 -48 c112 -38
222 -58 348 -64 61 -3 112 -10 112 -14 0 -33 -111 -292 -138 -323 -26 -28 -97
-61 -210 -96 l-102 -32 -58 50 c-31 27 -81 75 -109 105 -62 65 -65 83 -29 178
13 35 38 103 56 152 23 60 36 84 44 78 6 -5 45 -20 86 -34z m234 2 c-8 -14
-64 -11 -64 4 0 27 21 36 46 20 13 -8 21 -19 18 -24z m206 21 c0 -12 -28 -20
-45 -14 -14 6 -13 8 2 19 17 13 43 10 43 -5z m-100 -10 c0 -13 -35 -21 -55
-14 -15 6 -15 8 6 19 23 13 49 10 49 -5z m170 5 c0 -17 -2 -18 -25 -9 -13 5
-14 8 -3 15 19 13 28 11 28 -6z m-415 -15 c-3 -5 -10 -10 -16 -10 -5 0 -9 5
-9 10 0 6 7 10 16 10 8 0 12 -4 9 -10z m394 -17 c2 -2 -10 -3 -29 -3 -28 0
-31 2 -20 15 10 12 16 13 29 3 9 -7 18 -14 20 -15z m-105 11 c24 -9 9 -24 -25
-24 -29 0 -40 14 -16 23 18 8 23 8 41 1z m-134 -14 c-12 -8 -12 -10 -1 -10 8
0 12 -3 8 -6 -9 -9 -28 6 -22 17 4 5 12 9 18 9 7 0 6 -4 -3 -10z m90 -26 c0
-2 -9 -4 -21 -4 -11 0 -18 4 -14 10 5 8 35 3 35 -6z m190 6 c8 -5 12 -12 8
-15 -9 -9 -48 4 -48 16 0 12 21 11 40 -1z m-22 -38 c2 -7 -3 -12 -12 -12 -9 0
-16 7 -16 16 0 17 22 14 28 -4z m-692 -57 c-2 -7 -10 -31 -17 -54 -10 -35 -14
-39 -30 -30 -23 12 -24 42 -3 79 12 19 23 26 36 22 11 -2 17 -10 14 -17z m693
16 c17 -11 6 -31 -18 -31 -25 0 -33 11 -20 27 13 15 19 16 38 4z m256 -20 c6
-11 8 -84 2 -126 -5 -40 -32 -102 -64 -147 -15 -22 -23 -46 -20 -57 3 -11 0
-27 -7 -36 -14 -19 -116 -47 -116 -31 0 6 -6 23 -14 38 -12 23 -12 29 2 49 8
12 17 39 19 61 1 21 10 53 19 69 14 28 14 34 0 70 -24 59 -21 66 32 78 26 5
65 17 87 25 49 18 52 18 60 7z m-217 -36 c-2 -2 -14 -2 -26 2 -21 5 -21 6 -5
18 15 11 19 11 26 -2 5 -8 7 -16 5 -18z m-24 -26 c-7 -12 -41 -11 -49 1 -12
19 5 30 30 18 13 -6 22 -15 19 -19z m-50 -15 c26 -10 18 -24 -14 -24 -29 0
-38 9 -23 23 8 9 17 9 37 1z m86 -10 c0 -11 -5 -14 -16 -10 -9 3 -18 6 -20 6
-3 0 -2 5 1 10 10 16 35 12 35 -6z m-115 -44 c-3 -5 -14 -10 -23 -9 -14 0 -13
2 3 9 27 11 27 11 20 0z m133 -21 c-15 -10 -48 -12 -48 -3 0 4 8 13 17 20 13
9 22 9 31 2 11 -9 11 -13 0 -19z m-83 2 c7 -12 -31 -25 -46 -15 -8 4 -7 9 2
15 18 11 36 11 44 0z m-85 -11 c0 -5 -5 -10 -11 -10 -5 0 -7 5 -4 10 3 6 8 10
11 10 2 0 4 -4 4 -10z m118 -200 c30 -59 26 -85 -12 -85 -35 0 -46 20 -17 30
38 12 18 55 -26 55 -24 0 -27 7 -17 35 12 30 48 13 72 -35z m200 28 c2 -9 -4
-18 -13 -21 -11 -5 -15 0 -15 19 0 28 23 29 28 2z m-253 -48 c-44 -20 -694
-175 -701 -167 -12 12 35 28 151 52 72 15 200 44 285 65 184 46 238 58 265 58
l20 1 -20 -9z m-10 -29 c-11 -5 -36 -11 -55 -14 -35 -6 -34 -6 5 8 43 14 84
19 50 6z m-96 -25 c-9 -10 -531 -136 -557 -135 -15 0 65 23 178 50 113 27 237
57 275 68 67 18 113 26 104 17z m142 -136 l47 0 4 -65 c3 -73 6 -70 -77 -80
-27 -4 -58 -9 -68 -12 -13 -3 -21 5 -32 31 -20 48 -20 116 0 116 8 0 20 9 27
19 11 17 14 18 32 5 11 -8 42 -14 67 -14z m-297 13 c4 -5 20 -12 36 -18 l28
-10 -32 -67 c-17 -37 -36 -69 -43 -72 -10 -4 -122 19 -130 28 -1 1 2 30 8 64
11 61 11 62 44 62 19 0 37 5 40 10 7 12 38 13 49 3z m-123 -184 c19 -6 40 -12
46 -15 21 -6 -6 -54 -31 -54 -45 0 -64 12 -68 41 -7 43 -1 46 53 28z m499 6
c0 -11 -26 -61 -35 -67 -22 -17 -80 -8 -93 13 -7 12 -12 22 -10 24 3 2 111 30
131 34 4 0 7 -1 7 -4z m-690 -111 c0 -17 -26 -19 -36 -3 -7 12 15 31 28 23 4
-3 8 -12 8 -20z m70 16 c0 -5 -2 -10 -4 -10 -3 0 -8 5 -11 10 -3 6 -1 10 4 10
6 0 11 -4 11 -10z m83 -17 c-7 -2 -19 -2 -25 0 -7 3 -2 5 12 5 14 0 19 -2 13
-5z m507 -3 c0 -5 -4 -10 -9 -10 -6 0 -13 5 -16 10 -3 6 1 10 9 10 9 0 16 -4
16 -10z m169 -4 c15 -18 -1 -30 -30 -21 -16 5 -18 10 -8 21 15 18 23 18 38 0z"/>
<path d="M5330 2270 c-8 -5 -26 -10 -40 -10 l-24 0 22 -16 c27 -18 58 -11 65
16 6 22 0 25 -23 10z"/>
<path d="M5420 2261 c11 -22 36 -27 60 -11 19 12 13 16 -33 24 -36 7 -38 6
-27 -13z"/>
<path d="M5580 2245 c0 -8 5 -15 10 -15 6 0 10 7 10 15 0 8 -4 15 -10 15 -5 0
-10 -7 -10 -15z"/>
<path d="M5140 2225 c0 -8 5 -15 10 -15 6 0 10 7 10 15 0 8 -4 15 -10 15 -5 0
-10 -7 -10 -15z"/>
<path d="M5366 2212 c-3 -6 3 -8 14 -5 11 3 28 -1 37 -8 14 -12 16 -12 11 1
-5 17 -53 26 -62 12z"/>
<path d="M5286 2165 c-16 -12 -17 -15 -4 -15 8 0 36 -9 62 -21 52 -22 67 -20
127 19 30 20 37 28 24 30 -9 2 -29 -8 -44 -22 -16 -15 -39 -26 -55 -26 -34 0
-89 27 -81 40 9 15 -7 11 -29 -5z"/>
<path d="M5378 2083 c6 -2 18 -2 25 0 6 3 1 5 -13 5 -14 0 -19 -2 -12 -5z"/>
<path d="M4997 1938 c-42 -93 -90 -254 -83 -281 8 -34 169 -195 203 -203 36
-9 238 72 278 112 34 34 109 196 119 260 l7 41 -108 12 c-131 15 -260 42 -331
70 -29 12 -57 21 -61 21 -5 0 -15 -15 -24 -32z m79 -4 c61 -25 241 -63 337
-70 57 -5 87 -11 87 -19 0 -42 -83 -231 -117 -267 -25 -27 -133 -77 -221 -104
l-43 -13 -95 92 c-72 71 -94 98 -94 119 0 14 18 77 40 140 22 62 42 119 45
126 6 16 15 15 61 -4z"/>
<path d="M5055 1850 c-10 -11 -14 -20 -8 -20 5 0 18 9 28 20 10 11 14 20 8 20
-5 0 -18 -9 -28 -20z"/>
<path d="M5065 1820 c-10 -11 -15 -23 -12 -27 4 -3 1 -13 -5 -22 -10 -13 -10
-14 2 -3 8 6 19 12 24 12 6 0 -15 -26 -47 -58 -31 -32 -57 -62 -57 -67 0 -5
27 17 60 50 33 33 58 65 56 71 -3 7 7 22 22 35 l27 24 -24 -27 c-30 -34 -13
-38 18 -4 20 21 20 24 5 30 -11 4 -28 -3 -48 -21 -20 -18 -24 -20 -12 -5 24
28 16 39 -9 12z"/>
<path d="M5410 1810 c-19 -17 -29 -30 -22 -30 8 0 10 -5 6 -12 -4 -7 -3 -8 5
-4 6 4 8 13 5 19 -5 9 -4 9 6 0 10 -9 3 -23 -35 -67 -26 -31 -44 -56 -39 -56
5 0 39 36 77 80 37 44 64 80 59 80 -4 0 -13 -5 -20 -12 -7 -7 -12 -8 -12 -2 0
6 5 15 12 22 25 25 -8 10 -42 -18z"/>
<path d="M5355 1630 c-16 -16 -26 -32 -24 -35 3 -2 21 11 39 30 19 19 29 35
24 35 -6 0 -23 -13 -39 -30z"/>
<path d="M3220 2370 c0 -5 5 -10 10 -10 6 0 10 5 10 10 0 6 -4 10 -10 10 -5 0
-10 -4 -10 -10z"/>
<path d="M3182 2339 c2 -6 7 -10 12 -9 5 1 12 -4 17 -12 6 -9 8 -6 6 10 -1 14
-8 22 -20 22 -10 0 -17 -5 -15 -11z"/>
<path d="M3230 2340 c0 -5 4 -10 10 -10 5 0 7 -8 3 -17 -5 -15 -3 -14 10 2 8
11 13 23 11 27 -7 12 -34 10 -34 -2z"/>
<path d="M2385 1850 c-3 -5 1 -10 9 -10 9 0 16 5 16 10 0 6 -4 10 -9 10 -6 0
-13 -4 -16 -10z"/>
<path d="M1994 1049 c-7 -12 15 -31 28 -23 9 6 -1 34 -12 34 -5 0 -12 -5 -16
-11z"/>
<path d="M6710 980 c0 -5 -7 -7 -15 -4 -8 4 -15 1 -15 -5 0 -15 21 -13 44 4
17 13 18 15 3 15 -9 0 -17 -4 -17 -10z"/>
<path d="M6753 974 c4 -4 1 -14 -6 -23 -11 -14 -10 -15 8 -1 11 8 21 15 23 16
2 1 -5 5 -15 8 -9 4 -14 4 -10 0z"/>
<path d="M6637 953 c-13 -13 -7 -51 11 -64 15 -13 16 -12 3 3 -8 11 -11 28 -7
43 6 25 5 30 -7 18z"/>
<path d="M7250 930 c12 -16 24 -30 26 -30 3 0 -4 14 -16 30 -12 17 -24 30 -26
30 -3 0 4 -13 16 -30z"/>
<path d="M7140 909 c0 -5 5 -7 10 -4 6 3 10 8 10 11 0 2 -4 4 -10 4 -5 0 -10
-5 -10 -11z"/>
<path d="M6810 894 c-25 -7 -65 -13 -90 -13 -36 -1 -41 -4 -27 -12 12 -7 35
-7 75 2 31 7 65 13 75 14 9 1 23 7 29 13 15 15 0 14 -62 -4z"/>
<path d="M7212 895 c9 -10 21 -16 28 -13 7 2 -1 10 -16 17 -27 12 -28 11 -12
-4z"/>
<path d="M7150 890 c-18 -12 -2 -12 25 0 13 6 15 9 5 9 -8 0 -22 -4 -30 -9z"/>
<path d="M7275 868 c-5 -13 -25 -30 -43 -39 -30 -16 -31 -17 -10 -22 12 -4 24
-4 27 -2 2 3 -2 5 -10 5 -11 0 -11 2 1 10 20 13 33 12 24 -2 -4 -7 -3 -8 5 -4
6 4 9 11 6 16 -3 4 0 10 6 12 6 2 9 14 7 27 l-3 22 -10 -23z"/>
<path d="M2825 833 c-110 -17 -203 -70 -235 -133 -25 -49 -25 -83 0 -137 22
-49 95 -101 175 -124 63 -18 236 -18 288 0 46 16 102 63 123 102 22 44 2 35
-23 -10 -50 -88 -209 -114 -281 -48 -13 12 -33 40 -44 61 -28 55 -22 168 12
216 72 101 238 68 295 -61 10 -21 22 -39 27 -39 4 0 8 42 7 93 0 72 -3 87 -11
70 -16 -33 -33 -35 -101 -12 -61 21 -174 32 -232 22z"/>
<path d="M5055 833 c-25 -6 -55 -32 -55 -48 0 -7 9 -20 20 -30 42 -38 160 -16
160 30 0 33 -74 62 -125 48z"/>
<path d="M4776 781 c-27 -28 -141 -91 -165 -91 -6 0 -11 -4 -11 -8 0 -4 12 -8
28 -7 l27 0 3 -100 c3 -118 10 -129 89 -145 105 -22 214 7 213 58 -1 12 -5 9
-16 -10 -18 -35 -59 -46 -93 -27 -25 14 -26 19 -29 121 l-3 107 58 4 58 3 -57
2 -58 2 0 60 c0 33 -4 60 -8 60 -5 0 -21 -13 -36 -29z"/>
<path d="M3484 691 c-12 -5 -25 -15 -29 -21 -6 -9 -2 -9 15 0 27 14 37 6 19
-16 -7 -9 -14 -22 -15 -30 -6 -43 114 -61 154 -24 28 27 28 41 -3 70 -27 25
-104 37 -141 21z"/>
<path d="M3813 690 c-131 -28 -192 -122 -128 -198 47 -56 172 -84 278 -63 59
13 118 46 124 71 4 13 2 13 -9 -1 -63 -75 -209 -67 -238 14 -20 58 -21 57 125
57 91 0 135 4 135 11 0 24 -35 68 -70 88 -43 24 -153 35 -217 21z m117 -15 c6
-8 14 -32 17 -55 l6 -40 -63 0 -63 0 6 40 c7 51 22 70 57 70 15 0 33 -7 40
-15z"/>
<path d="M4265 694 c-81 -19 -106 -29 -121 -45 -23 -26 -12 -46 34 -60 53 -16
125 5 130 38 2 14 -3 23 -17 28 -25 8 -27 21 -5 29 29 11 62 6 68 -10 11 -28
6 -92 -6 -97 -7 -2 -5 -3 6 -1 16 2 18 -3 14 -61 -2 -35 -1 -63 2 -62 3 1 15
-4 26 -11 62 -34 171 -21 201 24 11 17 13 28 6 35 -7 7 -12 0 -16 -20 -5 -22
-12 -31 -27 -31 -24 0 -29 19 -32 124 l-3 79 -35 18 c-35 18 -182 33 -225 23z"/>
<path d="M5385 686 c-95 -23 -140 -64 -140 -128 0 -34 6 -46 37 -73 67 -57
183 -78 288 -51 193 50 196 201 5 251 -69 18 -121 18 -190 1z m139 -18 c12
-16 16 -47 16 -110 0 -97 -16 -128 -63 -128 -46 0 -62 33 -62 130 0 72 3 92
19 109 25 28 70 27 90 -1z"/>
<path d="M6030 694 c0 -5 9 -15 20 -22 19 -12 20 -21 18 -119 -3 -105 -4 -107
-28 -114 -14 -4 36 -7 110 -7 74 0 124 3 110 7 -24 7 -25 11 -28 91 -3 113 -7
127 -42 145 -35 18 -160 33 -160 19z"/>
<path d="M6418 687 c-53 -17 -78 -41 -78 -76 0 -36 18 -50 121 -91 102 -41
115 -72 37 -90 l-33 -8 40 -1 c59 -1 127 17 153 41 44 42 21 88 -61 123 -156
67 -162 70 -134 93 6 6 26 12 42 15 25 3 23 4 -10 5 -22 0 -57 -5 -77 -11z"/>
<path d="M6639 684 c-12 -15 -26 -14 -76 2 -10 3 -4 -3 12 -15 17 -11 42 -35
57 -53 l27 -33 1 58 c0 31 -2 57 -4 57 -2 0 -9 -7 -17 -16z"/>
<path d="M3248 680 c22 -9 23 -13 20 -122 l-3 -113 -30 -6 c-16 -4 35 -7 115
-7 80 0 132 3 115 7 l-30 6 -2 100 c-1 55 -2 110 -3 123 0 21 -3 22 -102 21
-73 0 -96 -3 -80 -9z"/>
<path d="M4993 679 c15 -9 17 -26 17 -124 l0 -114 -27 -4 c-16 -2 35 -4 112
-4 77 0 128 2 113 4 l-28 4 0 125 0 124 -102 0 c-75 -1 -98 -3 -85 -11z"/>
<path d="M5773 677 c15 -11 17 -27 15 -122 -3 -107 -4 -109 -28 -116 -14 -4
36 -7 110 -7 74 0 124 3 110 7 -24 7 -25 9 -27 111 -1 58 -2 113 -3 123 0 15
-11 17 -97 17 -80 0 -94 -2 -80 -13z"/>
<path d="M4240 565 c-94 -15 -109 -21 -116 -50 -15 -62 27 -90 133 -89 42 0
78 5 85 12 9 9 5 12 -19 12 -47 0 -61 62 -22 101 11 11 19 22 17 23 -1 1 -37
-3 -78 -9z"/>
<path d="M6330 480 c0 -62 0 -63 20 -45 13 12 28 15 47 11 23 -5 25 -4 10 5
-10 6 -31 29 -47 51 l-30 41 0 -63z"/>
</g>
</svg>
